<svg width="24" height="24" viewBox="0 0 24 24" fill="none" xmlns="http://www.w3.org/2000/svg">
<path d="M12 2C10.0222 2 8.08879 2.58649 6.4443 3.6853C4.79981 4.78412 3.51809 6.3459 2.76121 8.17317C2.00433 10.0004 1.8063 12.0111 2.19215 13.9509C2.578 15.8907 3.53041 17.6725 4.92894 19.0711C6.32746 20.4696 8.10929 21.422 10.0491 21.8079C11.9889 22.1937 13.9996 21.9957 15.8268 21.2388C17.6541 20.4819 19.2159 19.2002 20.3147 17.5557C21.4135 15.9112 22 13.9778 22 12C22 10.6868 21.7413 9.38642 21.2388 8.17317C20.7363 6.95991 19.9997 5.85752 19.0711 4.92893C18.1425 4.00035 17.0401 3.26375 15.8268 2.7612C14.6136 2.25866 13.3132 2 12 2ZM13 17.69H11V12.69H10V10.69H13V17.69ZM12 9.19C11.8022 9.19 11.6089 9.13135 11.4444 9.02147C11.28 8.91159 11.1518 8.75541 11.0761 8.57268C11.0004 8.38996 10.9806 8.18889 11.0192 7.99491C11.0578 7.80093 11.153 7.62275 11.2929 7.48289C11.4328 7.34304 11.6109 7.2478 11.8049 7.20921C11.9989 7.17063 12.2 7.19043 12.3827 7.26612C12.5654 7.34181 12.7216 7.46998 12.8315 7.63443C12.9414 7.79888 13 7.99222 13 8.19C13 8.45522 12.8946 8.70957 12.7071 8.89711C12.5196 9.08464 12.2652 9.19 12 9.19Z" fill="#1A1A19"/>
</svg>
